<svg xmlns="http://www.w3.org/2000/svg" viewBox="0 0 420 280" width="420" height="280">
  <defs>
    <pattern id="grid" width="10" height="10" patternUnits="userSpaceOnUse">
      <path d="M 10 0 L 0 0 0 10" fill="none" stroke="#cccccc" stroke-width="0.5"/>
    </pattern>
  </defs>
  
  <rect width="420" height="280" fill="#e0e0e0"/>
  
  <g fill="#666666" stroke="#444444" stroke-width="1">
    <circle cx="35" cy="35" r="22"/>
    <circle cx="140" cy="35" r="22"/>
    <circle cx="280" cy="35" r="22"/>
    <circle cx="385" cy="35" r="22"/>
  </g>
  
  <g transform="translate(20, 80)">
    <rect x="0" y="0" width="150" height="170" fill="url(#grid)" stroke="#333333" stroke-width="2"/>
    
    <rect x="8" y="8" width="134" height="154" fill="none" stroke="#00a0a0" stroke-width="5" rx="6"/>
    
    <rect x="28" y="8" width="38" height="28" fill="#a80000" stroke="#660000" stroke-width="1" rx="3"/>
    <text x="47" y="29" text-anchor="middle" fill="white" font-family="Arial, sans-serif" font-size="20" font-weight="bold">1</text>
    
    <rect x="28" y="134" width="38" height="28" fill="#a80000" stroke="#660000" stroke-width="1" rx="3"/>
    <text x="47" y="155" text-anchor="middle" fill="white" font-family="Arial, sans-serif" font-size="20" font-weight="bold">2</text>
    
    <g transform="translate(75, 85)" stroke="#888888" stroke-width="2.5" fill="none">
      <line x1="0" y1="-32" x2="0" y2="32"/>
      <line x1="-22" y1="-10" x2="22" y2="-10"/>
      <line x1="-22" y1="10" x2="22" y2="10"/>
      <line x1="0" y1="32" x2="-16" y2="12"/>
      <line x1="0" y1="32" x2="16" y2="12"/>
    </g>
    
    <rect x="130" y="8" width="14" height="154" fill="#00b0b0" opacity="0.7"/>
  </g>
  
  <g transform="translate(250, 80)">
    <rect x="0" y="0" width="150" height="170" fill="url(#grid)" stroke="#333333" stroke-width="2"/>
    
    <rect x="8" y="8" width="134" height="154" fill="none" stroke="#00a0a0" stroke-width="5" rx="6"/>
    
    <rect x="28" y="8" width="38" height="28" fill="#a80000" stroke="#660000" stroke-width="1" rx="3"/>
    <text x="47" y="29" text-anchor="middle" fill="white" font-family="Arial, sans-serif" font-size="20" font-weight="bold">1</text>
    
    <rect x="28" y="134" width="38" height="28" fill="#a80000" stroke="#660000" stroke-width="1" rx="3"/>
    <text x="47" y="155" text-anchor="middle" fill="white" font-family="Arial, sans-serif" font-size="20" font-weight="bold">2</text>
    
    <g transform="translate(75, 85)" stroke="#888888" stroke-width="2.5" fill="none">
      <line x1="0" y1="-32" x2="0" y2="32"/>
      <line x1="-22" y1="-10" x2="22" y2="-10"/>
      <line x1="-22" y1="10" x2="22" y2="10"/>
      <line x1="0" y1="32" x2="-16" y2="12"/>
      <line x1="0" y1="32" x2="16" y2="12"/>
    </g>
    
    <rect x="8" y="8" width="14" height="154" fill="#00b0b0" opacity="0.7"/>
  </g>
</svg>
